<?xml version="1.0" encoding="UTF-8" standalone="yes"?>

<svg version="1.1">
	<circle id="character_base"
		fill="#ffffffff" stroke="#bbbbbbff" stroke-width="1.50"
		r="16"
	/>
	<path id="Monocle"
		fill="#cce3e6ff" stroke="#6c9ea4ff" stroke-width="1.50"
		d="M 9.11,0.95 17.09,0.43 19.39,4.87 17.09,9.30 12.29,10.71 7.85,9.23 6.37,4.94 Z"
	/>
	<path id="Eye"
		fill="#ffffffff" stroke="#000000ff" stroke-width="1.50"
		d="M -4.20,6.30 -2.20,2.30 2.30,1.90 3.30,5.50 0.00,7.70 Z"
	/>
	<path id="Hat Brim"
		fill="#666666ff" stroke="#333333ff" stroke-width="1.50"
		d="M -21.58,-1.34 -16.63,1.32 -6.72,3.83 6.89,4.35 16.28,3.46 20.79,-0.68 18.50,-3.41 0.68,-6.52 -18.47,-3.71 Z"
	/>
	<path id="Hat Body"
		fill="#666666ff" stroke="#333333ff" stroke-width="1.50"
		d="M -15.00,-5.63 -16.63,-16.72 16.72,-17.90 15.17,-5.48 2.53,-2.08 Z"
	/>
	<path id="Hat Top"
		fill="#666666ff" stroke="#333333ff" stroke-width="1.50"
		d="M -15.74,-17.75 -9.75,-18.64 10.66,-18.79 16.06,-17.83 16.72,-17.09 10.88,-15.91 1.71,-15.09 -9.90,-15.61 -16.33,-16.50 Z"
	/>
	<path id="Hat Stripe"
		fill="#ffffffff" stroke="#333333ff" stroke-width="1.50"
		d="M -15.66,-3.71 -15.52,-7.77 -4.50,-5.41 3.93,-4.97 15.98,-8.29 15.91,-2.23 4.89,0.43 -5.39,-0.60 Z"
	/>
	<path id="moustache"
		fill="#b99649ff" stroke="#6f5928ff" stroke-width="1.50"
		d="M -4.06,9.52 1.27,10.56 6.22,9.60 11.25,11.22 15.24,9.52 14.43,14.11 9.85,14.25 6.37,12.48 2.38,14.77 -1.10,14.99 Z"
	/>
</svg>