<?xml version="1.0" encoding="UTF-8" standalone="yes"?>

<svg version="1.1">
	<circle id="character_base"
		fill="#fff6d6ff" stroke="#a19671ff" stroke-width="1.50"
		r="16"
	/>
	<path id="Back Ear"
		fill="#fff6d6ff" stroke="#a19671ff" stroke-width="1.50"
		d="M 15.02,-4.08 17.61,-9.55 13.25,-17.68 10.36,-7.63 Z"
	/>
	<path id="Hat"
		fill="#8dc95fff" stroke="#577d39ff" stroke-width="1.50"
		d="M -17.00,-5.63 -13.30,-13.91 -6.35,-21.38 -3.54,-28.03 2.53,-23.00 10.07,-15.68 16.72,-6.07 17.46,-2.97 12.36,-0.53 2.97,0.51 -9.82,-0.31 -17.59,-2.23 Z"
	/>
	<path id="Hat Crease"
		fill="#00000000" stroke="#577d39ff" stroke-width="1.75"
		d="M -8.64,-5.04 -0.73,-3.63 9.40,-4.37 13.99,-6.81"
	/>
	<path id="Front Ear"
		fill="#fff6d6ff" stroke="#a19671ff" stroke-width="1.50"
		d="M -13.52,7.75 -19.88,3.54 -22.25,-10.66 -14.93,-5.19 -13.00,0.28"
	/>
	<path id="Left Eye"
		fill="#ffffffff" stroke="#000000ff" stroke-width="1.50"
		d="M -8.79,7.16 -9.38,3.09 -4.94,1.02 -2.50,3.98 -5.02,7.23 Z"
	/>
	<path id="Right Eye"
		fill="#ffffffff" stroke="#000000ff" stroke-width="1.50"
		d="M 12.21,7.75 9.85,3.24 13.32,0.36 17.83,3.02 16.28,7.16 Z"
	/>
	<path id="Smile"
		fill="#ffffffff" stroke="#a19671ff" stroke-width="1.50"
		d="M -0.28,5.90 3.49,11.45 8.15,10.78 9.48,7.75 5.41,8.41 Z"
	/>
</svg>