<?xml version="1.0" encoding="UTF-8" standalone="yes"?>

<svg version="1.1">
	<circle id="character_base"
		fill="#898f97ff" stroke="#3c3d42ff" stroke-width="1.50"
		r="16"
	/>
	<path id="Shape 0"
		fill="#000000ff" stroke="#3c3d42ff" stroke-width="1.75"
		d="M -9.60,-4.67 -9.75,1.32 5.56,2.57 15.84,-0.53 15.02,-6.15 5.56,-2.67 Z"
	/>
	<path id="Shape 1"
		fill="#898f97ff" stroke="#3c3d42ff" stroke-width="1.75"
		d="M -14.48,-4.52 4.15,-1.34 16.28,-4.30 15.61,-8.37 6.15,-4.89 -3.61,-6.15 -12.49,-7.26 Z"
	/>
	<path id="Shape 3"
		fill="#000000ff" stroke="#00000000" stroke-width="1.50"
		d="M -3.46,4.87 7.33,4.94 14.14,2.80 12.58,5.90 8.00,7.23 -0.95,7.01 Z"
	/>
	<path id="Shape 4w"
		fill="#000000ff" stroke="#00000000" stroke-width="1.50"
		d="M -0.80,9.15 0.46,11.08 7.55,11.30 11.62,9.38 11.99,7.68 7.63,8.78 Z"
	/>
	<path id="Shape 2s"
		fill="#898f97ff" stroke="#3c3d42ff" stroke-width="1.50"
		d="M 5.26,12.78 6.44,7.75 5.04,2.50 8.07,2.65 8.89,6.71 7.78,11.96 Z"
	/>
	<path id="Shape 5"
		fill="#cd3c3cff" stroke="#6f2424ff" stroke-width="1.75"
		d="M 1.27,-12.14 2.75,-16.28 -1.47,-17.53 -2.95,-21.67 6.59,-23.08 9.40,-15.46 4.52,-11.40 Z"
	/>
</svg>