<?xml version="1.0" encoding="UTF-8" standalone="yes"?>

<svg version="1.1">
	<circle id="character_base"
		fill="#f6b431ff" stroke="#bf8208ff" stroke-width="1.75"
		r="16"
	/>
	<path id="tails"
		fill="#f6b431ff" stroke="#bf8208ff" stroke-width="1.00"
		d="M 16.50,1.40 15.00,-7.40 22.00,-9.00 22.10,2.70 13.90,7.80 Z"
	/>
	<path id="left eye"
		fill="#ffffffff" stroke="#00000000" stroke-width="1.00"
		d="M -11.40,0.90 -12.90,-6.20 -9.60,-9.10 -5.10,-8.80 -4.80,-0.40 Z"
	/>
	<path id="right eye"
		fill="#ffffffff" stroke="#00000000" stroke-width="1.00"
		d="M 5.10,-0.40 5.50,-7.80 9.60,-9.00 13.10,-5.10 11.40,0.70 Z"
	/>
	<path id="left pupil"
		fill="#000000ff" stroke="#2eadccff" stroke-width="1.00"
		d="M -9.91,-2.68 -9.02,-7.23 -6.51,-3.15 Z"
	/>
	<path id="right pupil"
		fill="#000000ff" stroke="#2eadccff" stroke-width="1.00"
		d="M 7.10,-2.30 8.20,-6.10 10.80,-1.60 Z"
	/>
	<path id="nose"
		fill="#ffffffff" stroke="#bf8208ff" stroke-width="1.00"
		d="M -9.90,2.50 -6.30,1.30 -0.20,-2.60 4.80,1.60 11.30,4.90 17.80,-0.30 14.60,7.10 17.50,10.60 5.90,7.20 -7.40,7.60 -17.10,9.20 -13.40,4.90 -17.80,-0.20 Z"
	/>
	<path id="mouth"
		fill="#d94e4eff" stroke="#000000ff" stroke-width="1.00"
		d="M -6.20,3.50 3.70,1.80 4.90,5.60 Z"
	/>
	<path id="left ear"
		fill="#ffffffff" stroke="#bf8208ff" stroke-width="2.00"
		d="M -14.20,-7.10 -20.40,-17.40 -14.50,-26.50 -8.30,-20.70 -7.50,-12.80"
	/>
	<path id="right ear"
		fill="#ffffffff" stroke="#bf8208ff" stroke-width="1.75"
		d="M 2.00,-15.00 7.00,-21.50 14.40,-24.00 16.60,-16.90 12.60,-8.50"
	/>
	<path id="nose tip"
		fill="#000000ff" stroke="#000000ff" stroke-width="1.00"
		d="M -4.50,-1.00 -1.90,2.30 0.90,-1.00 Z"
	/>
	<path id="hair flip"
		fill="#f6b431ff" stroke="#bf8208ff" stroke-width="1.00"
		d="M -7.19,-12.10 -17.00,-15.30 -9.90,-15.60 -16.60,-19.30 -5.60,-16.40 -11.00,-22.00 -2.00,-19.90 0.70,-14.20"
	/>
	<path id="tail tips"
		fill="#ffffffff" stroke="#bf8208ff" stroke-width="1.00"
		d="M 16.00,-7.20 20.50,-20.10 24.70,-13.50 24.10,-5.10 31.60,-15.10 31.30,-3.60 21.70,4.10 19.30,0.10 20.50,-4.80 Z"
	/>
</svg>