<?xml version="1.0" encoding="UTF-8" standalone="yes"?>

<svg version="1.1">
	<circle id="character_base"
		fill="#00000000" stroke="#00000000" stroke-width="2.50"
		r="16"
	/>
	<path id="Body"
		fill="#9ed75cff" stroke="#4c6b29ff" stroke-width="1.60"
		d="M -3.38,-15.16 -13.47,-10.19 -18.60,-2.14 -17.18,5.59 -13.95,11.97 -6.38,17.33 4.91,17.33 13.65,12.61 17.99,1.96 16.65,-6.24 11.77,-13.73 4.98,-15.39 1.91,-9.71 8.05,-3.64 7.66,3.38 4.43,8.11 -1.01,9.37 -8.27,7.40 -11.89,2.27 -11.58,-5.45 -1.57,-11.77 Z"
	/>
	<path id="Head"
		fill="#9ed75cff" stroke="#4c6b29ff" stroke-width="1.60"
		d="M -10.56,-7.58 -3.22,-12.47 -7.17,-12.86 -11.19,-11.61 -13.08,-13.49 -9.29,-18.46 -3.62,-18.39 1.35,-16.02 7.90,-20.04 6.01,-13.81 10.19,-9.00 3.72,-6.08 -0.06,-9.08 -7.17,-6.24 Z"
	/>
	<path id="Arm"
		fill="#9ed75cff" stroke="#4c6b29ff" stroke-width="1.33"
		d="M 11.30,-1.98 6.49,-2.77 5.30,0.06 7.03,1.57 9.00,-0.57"
	/>
	<path id="Foot"
		fill="#9ed75cff" stroke="#4c6b29ff" stroke-width="1.60"
		d="M -10.79,3.46 -8.82,2.04 -7.33,4.25 -11.19,6.06"
	/>
	<path id="Wing"
		fill="#9ed75cff" stroke="#4c6b29ff" stroke-width="1.60"
		d="M 9.87,7.32 7.51,11.42 9.16,14.50 15.39,12.61 19.10,2.90 17.13,-1.82"
	/>
	<path id="Eye"
		fill="#ffffffff" stroke="#000000ff" stroke-width="1.50"
		d="M -1.30,-6.30 3.80,-4.60 6.40,-8.40 4.00,-12.00 -0.70,-10.80 Z"
	/>
</svg>