<?xml version="1.0" encoding="UTF-8" standalone="yes"?>

<svg version="1.1">
	<circle id="character_base"
		fill="#fed968ff" stroke="#b99b40ff" stroke-width="1.50"
		r="16"
	/>
	<path id="Beard"
		fill="#eeeeeeff" stroke="#888888ff" stroke-width="1.50"
		d="M -11.82,12.92 -15.96,6.71 -16.77,-2.60 -14.11,-1.71 -11.60,5.68 -5.53,10.48 5.19,4.50 10.44,4.94 12.51,6.34 15.98,2.80 15.76,9.89 11.25,14.33 4.74,17.29 -5.24,16.92 Z"
	/>
	<path id="Mouth"
		fill="#fed968ff" stroke="#888888ff" stroke-width="1.50"
		d="M 3.04,10.11 6.67,7.31 9.99,7.53 11.77,10.85 7.78,11.96 Z"
	/>
	<path id="Left Eye"
		fill="#ffffffff" stroke="#000000ff" stroke-width="1.50"
		d="M -6.72,13.44 -8.42,7.90 -4.28,5.75 1.71,7.97 0.82,14.25 Z"
	/>
	<path id="Right Eye"
		fill="#ffffffff" stroke="#000000ff" stroke-width="1.50"
		d="M 13.77,11.00 13.40,6.34 17.39,5.68 20.64,7.75 19.02,11.37 Z"
	/>
	<path id="Hat Tail"
		fill="#55bdebff" stroke="#397c99ff" stroke-width="1.50"
		d="M -2.35,-20.49 -11.67,-18.20 -18.77,-12.21 -20.47,-1.79 -14.26,-8.96 -0.95,-10.58 Z"
	/>
	<path id="Hat"
		fill="#55bdebff" stroke="#397c99ff" stroke-width="1.50"
		d="M -2.28,-20.27 7.70,-19.08 15.10,-14.87 17.46,-5.78 17.46,-0.16 12.51,0.87 3.49,2.13 -9.60,2.57 -17.37,0.95 -16.92,-4.00 -13.59,-12.28"
	/>
	<path id="Star"
		fill="#ffee60ff" stroke="#c5a83dff" stroke-width="1.50"
		d="M 6.08,-7.26 9.40,-7.85 11.18,-12.14 14.21,-8.66 15.69,-8.59 15.39,-6.52 15.98,-2.38 12.51,-4.67 8.22,-1.34 9.55,-5.63 Z"
	/>
</svg>